<?xml version="1.0" ?><svg fill="white" data-name="Layer 1" id="Layer_1" viewBox="0 0 512 512" xmlns="http://www.w3.org/2000/svg"><path d="M246.55,282.57a5.48,5.48,0,1,0-8.77-6.56c-.09.11-8.45,11.09-22.06,11.09-13.45,0-22-11-22.06-11.09a5.48,5.48,0,1,0-8.77,6.56c.47.63,11.8,15.48,30.83,15.48S246.08,283.2,246.55,282.57Z"/><path d="M372.31,394.93c-1.6-19.73-13.71-36.62-30.85-43l-83.35-31.08a90.67,90.67,0,0,0,48.18-80v-34c11.85-3.35,19.43-7.18,24.26-10.74a13.23,13.23,0,0,0,3.25-17.87,36.69,36.69,0,0,0-17.27-14.47c-1.15-16.48-9.26-78.13-66.28-97.38l.8-8.61a5.46,5.46,0,0,0-4.31-5.86c-25-5.31-60.21-.28-61.7-.07a5.47,5.47,0,0,0-4.65,5.93l.8,8.61c-57,19.24-65.13,80.9-66.28,97.38a36.64,36.64,0,0,0-17.27,14.47A13.24,13.24,0,0,0,100.89,196c4.83,3.56,12.41,7.39,24.25,10.74v34a90.68,90.68,0,0,0,48.19,80L90,351.92c-17.14,6.4-29.25,23.28-30.84,43l-5,61.74a5.48,5.48,0,0,0,5,5.9l.45,0a5.48,5.48,0,0,0,5.45-5l5-61.74C71.3,380.3,80.63,367.1,93.8,362.18l14.9-5.55V457.11a5.48,5.48,0,1,0,11,0V352.54l22.69-8.46,8.74,65.79a5.49,5.49,0,0,0,5.43,4.76H274.93a5.49,5.49,0,0,0,5.43-4.76l8.74-65.79,22.69,8.46V457.11a5.48,5.48,0,1,0,10.95,0V356.63l14.89,5.55c13.18,4.92,22.51,18.12,23.76,33.64l5,61.74a5.48,5.48,0,0,0,5.46,5l.44,0a5.47,5.47,0,0,0,5-5.9ZM106.82,184.14c2.64-4.06,7.34-9.27,14.67-11.06a5.47,5.47,0,0,0,4.18-5.31c0-2.91.82-69.52,56.56-90.22l7,75.33a5.47,5.47,0,1,0,10.9-1L191.78,62c9.59-1.07,30.79-2.85,47.91-.29l-8.39,90.18a5.47,5.47,0,0,0,4.94,6l.52,0a5.47,5.47,0,0,0,5.44-5l7-75.33c55.75,20.7,56.56,87.31,56.57,90.22a5.47,5.47,0,0,0,4.18,5.31c7.33,1.79,12,7,14.68,11.06a2.32,2.32,0,0,1-.58,3.08c-7.22,5.32-32.15,17.6-108.33,18-76.17-.36-101.11-12.64-108.33-18A2.31,2.31,0,0,1,106.82,184.14Zm29.27,56.67V209.44c17.38,3.66,41.65,6.32,75.56,6.66a4.44,4.44,0,0,0,.63,0h6.88a4.44,4.44,0,0,0,.63,0c33.9-.34,58.18-3,75.55-6.66v31.37a79.63,79.63,0,1,1-159.25,0Zm134,162.87H161.3l-8.43-63.53,33.63-12.54a5.54,5.54,0,0,0,1.23-.65,90.61,90.61,0,0,0,56,0,5.84,5.84,0,0,0,1.24.65l33.63,12.54Z"/><path d="M439.64,266.75,410.5,254.64a46.86,46.86,0,1,0-51.34,0L330,266.75a29.54,29.54,0,0,0-18.23,27.34v17a5.48,5.48,0,1,0,10.95,0v-17a18.59,18.59,0,0,1,11.49-17.22l38.68-16.09a46.9,46.9,0,0,0,23.84,0l38.68,16.09a18.59,18.59,0,0,1,11.49,17.22v17a5.48,5.48,0,1,0,10.95,0v-17A29.54,29.54,0,0,0,439.64,266.75Zm-90.72-51.29a35.91,35.91,0,1,1,35.91,35.91A36,36,0,0,1,348.92,215.46Z"/><path d="M184.92,228.26a5.48,5.48,0,0,0-10.95,0v15.79a5.48,5.48,0,1,0,10.95,0Z"/><path d="M252,249.53a5.47,5.47,0,0,0,5.47-5.48V228.26a5.48,5.48,0,0,0-11,0v15.79A5.48,5.48,0,0,0,252,249.53Z"/></svg>